<svg width="470" height="173" viewBox="0 0 470 173" fill="none" xmlns="http://www.w3.org/2000/svg">
<path d="M441.541 48.6059C450.757 52.9449 462.207 107.111 469.333 148.692C471.397 160.735 462.052 171.609 449.833 171.632L3.18549 172.492C1.07373 172.496 -0.530579 170.398 0.334442 168.471C0.518707 168.061 0.621002 167.705 0.693207 167.261C1.2132 164.063 3.06705 160.526 8.32004 151.849C9.18903 150.414 10.2297 149.07 11.4999 147.974C22.3688 138.591 31.9612 140.54 35.5532 142.842C36.6557 143.611 39.5782 145.609 43.476 148.183C44.9915 149.184 46.6418 150.121 48.4579 150.114C53.872 150.094 57.4793 144.626 58.7231 141.473C59.9012 139.04 63.4355 130.249 68.1481 114.553C71.4247 100.912 76.5208 102.136 79.5173 105.287C80.4018 106.217 81.1666 107.257 82.0738 108.165C82.8285 108.92 83.797 109.883 84.9198 110.989C87.3037 113.338 90.707 115.496 93.3404 113.431C97.2331 110.378 99.7832 102.7 100.743 98.1276C103.492 87.6333 109.854 64.3634 113.31 55.2379C117.479 47.1645 122.98 49.6861 126.006 52.6918C126.752 53.4323 127.31 54.3306 127.82 55.2491C131.871 62.5415 139.327 75.8857 141.977 80.3329C144.805 85.0782 148.13 85.0478 149.439 84.4394C150.439 83.923 152.853 82.3768 155.482 79.9121C156.45 79.0042 157.416 78.0267 158.678 77.6168C160.559 77.0061 162.376 77.371 163.631 77.9014C164.415 78.2327 165.055 78.8133 165.653 79.4191C166.28 80.054 167.072 80.8551 167.919 81.7075C169.626 83.4265 172.346 85.1296 174.137 83.4975C174.646 83.0338 175.268 82.4181 175.651 81.8459C177.952 78.4053 181.555 65.8056 183.212 59.3444C183.76 57.3047 185.321 52.4014 187.661 46.9988C188.577 44.886 189.817 42.3537 192.116 42.2404C198.837 41.9092 203.043 64.0307 204.418 76.6827C205.989 89.7626 209.209 117.2 209.523 122.31C209.884 128.169 211.565 134.029 213.054 139.888C213.321 140.942 213.98 142.812 214.697 143.63C217.194 146.475 219.607 140.913 221.564 137.673C224.291 133.157 227.532 129.805 229.749 127.939C230.635 127.192 231.65 126.631 232.694 126.128C237.726 123.7 246.306 119.199 249.972 115.922C253.099 113.128 256.425 113.186 258.576 113.844C259.697 114.187 260.606 114.975 261.602 115.594C263.25 116.619 265.849 117.747 268.822 117.747C274.477 117.747 278.771 108.318 280.211 103.603C282.436 98.4318 287.28 86.9945 288.851 82.6143C290.61 77.7095 292.684 73.537 296.484 68.4568C297.395 67.2396 298.447 66.0919 299.788 65.3765C305.05 62.5694 308.833 66.4657 311.806 70.2521C313.007 71.7807 314.321 73.4082 316.215 73.8422C319.451 74.5834 321.796 71.8231 323.859 68.0391C324.36 67.1203 324.904 66.232 325.377 65.2984C328.582 58.974 333.414 40.2968 335.583 31.0555C336.63 27.7095 339.903 17.9149 344.615 5.50423C351.213 -6.54137 358.622 5.9605 361.502 13.7171C367.785 30.9034 380.902 66.371 383.101 70.7512C385.85 76.2265 387.421 76.6827 392.133 76.6827C396.485 76.9987 403.505 68.9023 407.69 63.1698C408.864 61.5617 410.141 59.927 411.997 59.2055C412.372 59.0597 412.758 58.9422 413.143 58.8698C414.89 58.541 416.172 60.1371 417.47 61.3519C421.01 64.665 423.714 63.0664 424.728 61.6258C427.431 58.606 432.776 53.0154 436.435 50.2936C437.947 49.1696 439.837 47.8037 441.541 48.6059Z" fill="url(#paint0_linear_229_20987)"/>
<defs>
<linearGradient id="paint0_linear_229_20987" x1="236.031" y1="0.5" x2="236.031" y2="172.5" gradientUnits="userSpaceOnUse">
<stop stop-color="#A5DDFF"/>
<stop offset="1" stop-color="#D3EFFF" stop-opacity="0"/>
</linearGradient>
</defs>
</svg>
