<svg width="26" height="26" viewBox="0 0 26 26" fill="none" xmlns="http://www.w3.org/2000/svg">
<path d="M19.0469 8.90003C19.0469 7.26894 18.399 5.70466 17.2456 4.5513C16.0923 3.39795 14.528 2.75 12.8969 2.75C11.2658 2.75 9.70155 3.39795 8.54819 4.5513C7.39484 5.70466 6.74689 7.26894 6.74689 8.90003C6.74689 16.0751 3.67188 18.1251 3.67188 18.1251H22.122C22.122 18.1251 19.0469 16.0751 19.0469 8.90003Z" fill="#E3E3E3"/>
<path d="M14.6715 22.2246C14.4913 22.5353 14.2327 22.7931 13.9214 22.9724C13.6102 23.1516 13.2574 23.246 12.8983 23.246C12.5391 23.246 12.1863 23.1516 11.8751 22.9724C11.5639 22.7931 11.3052 22.5353 11.125 22.2246" stroke="#E3E3E3" stroke-width="2.05001" stroke-linecap="round" stroke-linejoin="round"/>
<circle cx="18.7432" cy="5.51464" r="4.07128" fill="#DA001A"/>
</svg>
