<svg width="28" height="29" viewBox="0 0 28 29" fill="none" xmlns="http://www.w3.org/2000/svg">
<path d="M26.8307 3.70704C26.8307 3.70704 24.4764 5.09771 23.1674 5.49204C22.4648 4.68414 21.531 4.11152 20.4923 3.85162C19.4536 3.59173 18.3601 3.65711 17.3598 4.03891C16.3595 4.42071 15.5006 5.10051 14.8992 5.98638C14.2978 6.87225 13.983 7.92144 13.9974 8.99204V10.1587C11.9471 10.2119 9.91555 9.75716 8.08357 8.83506C6.2516 7.91297 4.6761 6.55212 3.4974 4.87371C3.4974 4.87371 -1.16927 15.3737 9.33073 20.0404C6.92801 21.6713 4.06575 22.4891 1.16406 22.3737C11.6641 28.207 24.4974 22.3737 24.4974 8.95704C24.4974 8.63271 24.4647 8.30838 24.4041 7.98871C25.5941 6.81504 26.8307 3.70704 26.8307 3.70704Z" stroke="#4D4F5C" stroke-width="1.75" stroke-linecap="round" stroke-linejoin="round"/>
</svg>
