<svg width="29" height="29" viewBox="0 0 29 29" fill="none" xmlns="http://www.w3.org/2000/svg">
<path d="M25.2187 9.52865V18.862C25.2187 20.4091 24.6042 21.8928 23.5102 22.9868C22.4162 24.0807 20.9325 24.6953 19.3854 24.6953H10.0521C8.50499 24.6953 7.02126 24.0807 5.92729 22.9868C4.83333 21.8928 4.21875 20.4091 4.21875 18.862V9.52865C4.21875 7.98155 4.83333 6.49782 5.92729 5.40386C7.02126 4.30989 8.50499 3.69531 10.0521 3.69531H19.3854C20.9325 3.69531 22.4162 4.30989 23.5102 5.40386C24.6042 6.49782 25.2187 7.98155 25.2187 9.52865Z" stroke="#4D4F5C" stroke-width="1.75" stroke-linecap="round" stroke-linejoin="round"/>
<path d="M13.5521 24.696V14.196C13.5521 11.6433 14.1354 9.5293 18.2187 9.5293M11.2188 15.3626H18.2187" stroke="#4D4F5C" stroke-width="1.75" stroke-linecap="round" stroke-linejoin="round"/>
</svg>
