<svg width="29" height="29" viewBox="0 0 29 29" fill="none" xmlns="http://www.w3.org/2000/svg">
<g clip-path="url(#clip0_556_955)">
<path d="M21.0573 13.1721C20.936 13.1145 20.8134 13.0592 20.6898 13.0065C20.474 9.02348 18.2982 6.74381 14.6442 6.72048H14.5952C12.4088 6.72048 10.5923 7.65381 9.4735 9.35131L11.4825 10.7291C12.3178 9.46098 13.6292 9.19031 14.5963 9.19031H14.629C15.8318 9.19848 16.7407 9.54848 17.3275 10.231C17.7557 10.7268 18.0415 11.414 18.1827 12.2796C17.0415 12.0943 15.8831 12.0384 14.7293 12.1128C11.2562 12.3135 9.022 14.3388 9.1725 17.154C9.24833 18.582 9.96 19.8105 11.1757 20.6131C12.2023 21.2921 13.5265 21.6235 14.9032 21.5488C16.7197 21.4485 18.1442 20.7555 19.1382 19.4885C19.8942 18.526 20.3713 17.2788 20.5825 15.7073C21.4482 16.23 22.0898 16.9171 22.4445 17.7431C23.0477 19.149 23.0827 21.4578 21.1985 23.3396C19.5477 24.9893 17.5632 25.7021 14.5648 25.7243C11.2387 25.701 8.72217 24.6335 7.0865 22.5545C5.55467 20.6061 4.76367 17.7945 4.7345 14.1953C4.76367 10.5961 5.55467 7.78331 7.0865 5.83615C8.72217 3.75715 11.2375 2.69081 14.5648 2.66631C17.9143 2.68965 20.474 3.76298 22.1727 5.85131C23.0057 6.87681 23.6333 8.16481 24.0475 9.66631L26.4018 9.03865C25.9002 7.18948 25.1103 5.59698 24.037 4.27515C21.8588 1.59531 18.6738 0.223312 14.573 0.195312H14.5567C10.4605 0.223312 7.314 1.60115 5.19883 4.29031C3.31583 6.68198 2.34517 10.0128 2.3125 14.186V14.2046C2.34517 18.379 3.31583 21.7075 5.19767 24.1003C7.31283 26.7895 10.4617 28.1673 14.5567 28.1953H14.573C18.213 28.1696 20.7785 27.2165 22.8913 25.1048C25.6575 22.3421 25.5747 18.8795 24.6623 16.7538C24.009 15.229 22.7618 13.9911 21.0573 13.1721ZM14.7725 19.0813C13.25 19.1676 11.6692 18.484 11.5898 17.021C11.5315 15.936 12.3622 14.7238 14.8658 14.5803C15.1528 14.5628 15.434 14.5558 15.7105 14.5558C16.6205 14.5558 17.4698 14.6433 18.2433 14.8125C17.9552 18.4151 16.2635 18.9996 14.7725 19.0813Z" fill="#4D4F5C"/>
</g>
<defs>
<clipPath id="clip0_556_955">
<rect width="28" height="28" fill="white" transform="translate(0.359375 0.195312)"/>
</clipPath>
</defs>
</svg>
