<svg width="140" height="29" viewBox="0 0 140 29" fill="none" xmlns="http://www.w3.org/2000/svg">
<path d="M14.5312 0.373047C14.5603 1.27334 15.8716 1.34206 15.9946 0.44974C15.9295 1.34814 17.2264 1.55355 17.442 0.678981C17.2833 1.56565 18.5516 1.9055 18.8575 1.05826C18.607 1.92348 19.8328 2.39404 20.2256 1.58341C19.886 2.4177 21.0559 3.01382 21.5312 2.24869C21.1063 3.04292 22.2075 3.75806 22.7602 3.04681C22.2546 3.79226 23.275 4.6186 23.8991 3.96902C23.3183 4.65754 24.2468 5.58601 24.9353 5.00522C24.2857 5.62925 25.112 6.64969 25.8575 6.14405C25.1462 6.69677 25.8614 7.798 26.6556 7.37305C25.8905 7.84839 26.4866 9.01834 27.3209 8.67873C26.5103 9.0715 26.9808 10.2973 27.846 10.0468C26.9988 10.3527 27.3386 11.621 28.2253 11.4623C27.3507 11.6779 27.5562 12.9748 28.4546 12.9096C27.5622 13.0327 27.631 14.344 28.5312 14.373C27.631 14.4021 27.5622 15.7134 28.4546 15.8364C27.5562 15.7713 27.3507 17.0682 28.2253 17.2838C27.3386 17.1251 26.9988 18.3934 27.846 18.6993C26.9808 18.4488 26.5103 19.6746 27.3209 20.0674C26.4866 19.7278 25.8905 20.8977 26.6556 21.373C25.8614 20.9481 25.1462 22.0493 25.8575 22.602C25.112 22.0964 24.2857 23.1168 24.9353 23.7409C24.2468 23.1601 23.3183 24.0886 23.8991 24.7771C23.275 24.1275 22.2546 24.9538 22.7602 25.6993C22.2075 24.988 21.1063 25.7032 21.5312 26.4974C21.0559 25.7323 19.886 26.3284 20.2256 27.1627C19.8328 26.3521 18.607 26.8226 18.8575 27.6878C18.5516 26.8406 17.2833 27.1804 17.442 28.0671C17.2264 27.1925 15.9295 27.3979 15.9946 28.2964C15.8716 27.404 14.5603 27.4728 14.5312 28.373C14.5022 27.4728 13.1909 27.404 13.0679 28.2964C13.133 27.3979 11.8361 27.1925 11.6205 28.0671C11.7792 27.1804 10.5109 26.8406 10.205 27.6878C10.4555 26.8226 9.2297 26.3521 8.83694 27.1627C9.17654 26.3284 8.00659 25.7323 7.53125 26.4974C7.9562 25.7032 6.85498 24.988 6.30226 25.6993C6.8079 24.9538 5.78746 24.1275 5.16342 24.7771C5.74421 24.0886 4.81574 23.1601 4.12722 23.7409C4.7768 23.1168 3.95047 22.0964 3.20501 22.602C3.91626 22.0493 3.20112 20.9481 2.40689 21.373C3.17202 20.8977 2.57591 19.7278 1.74161 20.0674C2.55224 19.6746 2.08168 18.4488 1.21646 18.6993C2.0637 18.3934 1.72385 17.1251 0.837184 17.2838C1.71175 17.0682 1.50635 15.7713 0.607944 15.8364C1.50026 15.7134 1.43154 14.4021 0.53125 14.373C1.43154 14.344 1.50026 13.0327 0.607944 12.9096C1.50635 12.9748 1.71176 11.6779 0.837184 11.4623C1.72385 11.621 2.0637 10.3527 1.21646 10.0468C2.08168 10.2973 2.55224 9.0715 1.74161 8.67873C2.57591 9.01834 3.17202 7.84839 2.40689 7.37305C3.20112 7.798 3.91626 6.69677 3.20501 6.14405C3.95047 6.64969 4.7768 5.62925 4.12722 5.00522C4.81574 5.58601 5.74421 4.65754 5.16342 3.96902C5.78746 4.6186 6.8079 3.79226 6.30226 3.04681C6.85498 3.75806 7.9562 3.04292 7.53125 2.24869C8.00659 3.01382 9.17654 2.4177 8.83694 1.58341C9.2297 2.39404 10.4555 1.92348 10.205 1.05826C10.5109 1.90549 11.7792 1.56565 11.6205 0.678981C11.8361 1.55355 13.133 1.34814 13.0679 0.44974C13.1909 1.34206 14.5022 1.27334 14.5312 0.373047Z" fill="#FFA722"/>
<path d="M70.0312 0.373047C70.0584 1.24343 71.3276 1.31295 71.4424 0.44974C71.3816 1.31846 72.6366 1.52621 72.8381 0.678981C72.6898 1.53773 73.9165 1.88126 74.203 1.05826C73.9683 1.89872 75.1528 2.37399 75.5222 1.58341C75.2028 2.39725 76.3319 2.99869 76.7812 2.24869C76.3794 3.02753 77.4408 3.74814 77.9664 3.04681C77.4853 3.78231 78.4673 4.61375 79.0645 3.96902C78.5082 4.65292 79.4002 5.58566 80.0637 5.00522C79.4371 5.62945 80.2296 6.65291 80.953 6.14405C80.2621 6.70085 80.9467 7.80357 81.7226 7.37305C80.9743 7.85514 81.5441 9.0249 82.3641 8.67873C81.5665 9.07952 82.0156 10.3035 82.8705 10.0468C82.0325 10.3606 82.3564 11.6256 83.2362 11.4623C82.3676 11.6844 82.5632 12.9769 83.4573 12.9096C82.5685 13.0367 82.6339 14.343 83.5312 14.373C82.6339 14.4031 82.5685 15.7094 83.4573 15.8364C82.5632 15.7692 82.3676 17.0617 83.2362 17.2838C82.3564 17.1205 82.0325 18.3855 82.8705 18.6993C82.0156 18.4426 81.5665 19.6666 82.3641 20.0674C81.5441 19.7212 80.9743 20.891 81.7226 21.373C80.9467 20.9425 80.2621 22.0452 80.953 22.602C80.2296 22.0932 79.4371 23.1166 80.0637 23.7409C79.4002 23.1604 78.5082 24.0932 79.0645 24.7771C78.4673 24.1323 77.4853 24.9638 77.9664 25.6993C77.4408 24.998 76.3794 25.7186 76.7812 26.4974C76.3319 25.7474 75.2028 26.3488 75.5222 27.1627C75.1528 26.3721 73.9683 26.8474 74.203 27.6878C73.9165 26.8648 72.6898 27.2084 72.8381 28.0671C72.6366 27.2199 71.3816 27.4276 71.4424 28.2964C71.3276 27.4331 70.0584 27.5027 70.0312 28.373C70.0041 27.5027 68.7349 27.4331 68.6201 28.2964C68.6809 27.4276 67.4259 27.2199 67.2244 28.0671C67.3727 27.2084 66.146 26.8648 65.8595 27.6878C66.0942 26.8474 64.9097 26.3721 64.5403 27.1627C64.8597 26.3488 63.7306 25.7474 63.2812 26.4974C63.6831 25.7186 62.6217 24.998 62.0961 25.6993C62.5772 24.9638 61.5952 24.1323 60.998 24.7771C61.5543 24.0932 60.6623 23.1604 59.9988 23.7409C60.6254 23.1166 59.8329 22.0932 59.1095 22.602C59.8004 22.0452 59.1158 20.9425 58.3399 21.373C59.0882 20.891 58.5184 19.7212 57.6984 20.0674C58.496 19.6666 58.0469 18.4426 57.192 18.6993C58.0301 18.3855 57.7061 17.1205 56.8263 17.2838C57.6949 17.0617 57.4993 15.7692 56.6052 15.8364C57.494 15.7094 57.4286 14.4031 56.5312 14.373C57.4286 14.343 57.494 13.0367 56.6052 12.9096C57.4993 12.9769 57.6949 11.6844 56.8263 11.4623C57.7061 11.6256 58.03 10.3606 57.192 10.0468C58.0469 10.3035 58.496 9.07952 57.6984 8.67873C58.5184 9.0249 59.0882 7.85514 58.3399 7.37305C59.1158 7.80357 59.8004 6.70085 59.1095 6.14405C59.8329 6.65291 60.6254 5.62945 59.9988 5.00522C60.6623 5.58566 61.5543 4.65292 60.998 3.96902C61.5952 4.61375 62.5772 3.78231 62.0961 3.04681C62.6217 3.74814 63.6831 3.02753 63.2812 2.24869C63.7306 2.99869 64.8597 2.39725 64.5403 1.58341C64.9097 2.37399 66.0942 1.89872 65.8595 1.05826C66.146 1.88126 67.3727 1.53774 67.2244 0.678981C67.4259 1.5262 68.6809 1.31846 68.6201 0.44974C68.7349 1.31295 70.0041 1.24343 70.0312 0.373047Z" fill="#FFA722"/>
<path d="M122.945 2.2038C123.379 2.29221 123.845 2.21827 124.231 2.00009C124.653 2.13337 125.125 2.10863 125.531 1.93193C125.937 2.10863 126.409 2.13337 126.832 2.00009C127.217 2.21827 127.684 2.29221 128.118 2.2038C128.478 2.46107 128.935 2.58341 129.376 2.54084C129.707 2.83439 130.149 3.00378 130.592 3.00753C130.891 3.33412 131.312 3.54871 131.752 3.59873C132.015 3.9548 132.412 4.21224 132.844 4.30798C133.069 4.68963 133.436 4.98709 133.856 5.1275C134.04 5.53055 134.374 5.86478 134.777 6.04832C134.917 6.46834 135.215 6.83568 135.596 7.06035C135.692 7.49275 135.949 7.88916 136.306 8.15249C136.356 8.59253 136.57 9.01368 136.897 9.31279C136.901 9.75565 137.07 10.1969 137.363 10.5285C137.321 10.9694 137.443 11.4259 137.7 11.7864C137.612 12.2204 137.686 12.6872 137.904 13.0726C137.771 13.4949 137.796 13.967 137.972 14.3731C137.796 14.7791 137.771 15.2512 137.904 15.6735C137.686 16.0589 137.612 16.5257 137.7 16.9597C137.443 17.3202 137.321 17.7767 137.363 18.2176C137.07 18.5492 136.901 18.9905 136.897 19.4333C136.57 19.7324 136.356 20.1536 136.306 20.5936C135.949 20.8569 135.692 21.2534 135.596 21.6858C135.215 21.9104 134.917 22.2778 134.777 22.6978C134.374 22.8813 134.04 23.2156 133.856 23.6186C133.436 23.759 133.069 24.0565 132.844 24.4381C132.412 24.5339 132.015 24.7913 131.752 25.1474C131.312 25.1974 130.891 25.412 130.592 25.7386C130.149 25.7423 129.707 25.9117 129.376 26.2053C128.935 26.1627 128.478 26.285 128.118 26.5423C127.684 26.4539 127.217 26.5278 126.832 26.746C126.409 26.6127 125.937 26.6375 125.531 26.8142C125.125 26.6375 124.653 26.6127 124.231 26.746C123.845 26.5278 123.379 26.4539 122.945 26.5423C122.584 26.285 122.128 26.1627 121.687 26.2053C121.355 25.9117 120.914 25.7423 120.471 25.7386C120.172 25.412 119.751 25.1974 119.311 25.1474C119.047 24.7913 118.651 24.5339 118.219 24.4381C117.994 24.0565 117.627 23.759 117.207 23.6186C117.023 23.2156 116.689 22.8813 116.286 22.6978C116.145 22.2778 115.848 21.9104 115.466 21.6857C115.37 21.2533 115.113 20.8569 114.757 20.5936C114.707 20.1536 114.492 19.7324 114.166 19.4333C114.162 18.9904 113.993 18.5492 113.699 18.2176C113.742 17.7767 113.619 17.3202 113.362 16.9597C113.45 16.5257 113.376 16.0589 113.158 15.6735C113.292 15.2512 113.267 14.7791 113.09 14.373C113.267 13.967 113.292 13.4949 113.158 13.0726C113.376 12.6872 113.45 12.2203 113.362 11.7864C113.619 11.4259 113.742 10.9693 113.699 10.5285C113.993 10.1969 114.162 9.75564 114.166 9.31279C114.492 9.01368 114.707 8.59252 114.757 8.15249C115.113 7.88916 115.37 7.49274 115.466 7.06034C115.848 6.83567 116.145 6.46833 116.286 6.04832C116.689 5.86477 117.023 5.53054 117.207 5.1275C117.627 4.98708 117.994 4.68962 118.219 4.30798C118.651 4.21223 119.047 3.9548 119.311 3.59873C119.751 3.54871 120.172 3.33412 120.471 3.00753C120.914 3.00378 121.355 2.83438 121.687 2.54084C122.128 2.58341 122.584 2.46107 122.945 2.2038Z" stroke="#FFA722" stroke-width="2"/>
<path d="M42.5312 0.373047C42.5603 1.27334 43.8716 1.34206 43.9946 0.44974C43.9295 1.34814 45.2264 1.55355 45.442 0.678981C45.2833 1.56565 46.5516 1.9055 46.8575 1.05826C46.607 1.92348 47.8328 2.39404 48.2256 1.58341C47.886 2.4177 49.0559 3.01382 49.5312 2.24869C49.1063 3.04292 50.2075 3.75806 50.7602 3.04681C50.2546 3.79226 51.275 4.6186 51.8991 3.96902C51.3183 4.65754 52.2468 5.58601 52.9353 5.00522C52.2857 5.62925 53.112 6.64969 53.8575 6.14405C53.1462 6.69677 53.8614 7.798 54.6556 7.37305C53.8905 7.84839 54.4866 9.01834 55.3209 8.67873C54.5103 9.0715 54.9808 10.2973 55.846 10.0468C54.9988 10.3527 55.3386 11.621 56.2253 11.4623C55.3507 11.6779 55.5562 12.9748 56.4546 12.9096C55.5622 13.0327 55.631 14.344 56.5312 14.373C55.631 14.4021 55.5622 15.7134 56.4546 15.8364C55.5562 15.7713 55.3507 17.0682 56.2253 17.2838C55.3386 17.1251 54.9988 18.3934 55.846 18.6993C54.9808 18.4488 54.5103 19.6746 55.3209 20.0674C54.4866 19.7278 53.8905 20.8977 54.6556 21.373C53.8614 20.9481 53.1462 22.0493 53.8575 22.602C53.112 22.0964 52.2857 23.1168 52.9353 23.7409C52.2468 23.1601 51.3183 24.0886 51.8991 24.7771C51.275 24.1275 50.2546 24.9538 50.7602 25.6993C50.2075 24.988 49.1063 25.7032 49.5312 26.4974C49.0559 25.7323 47.886 26.3284 48.2256 27.1627C47.8328 26.3521 46.607 26.8226 46.8575 27.6878C46.5516 26.8406 45.2833 27.1804 45.442 28.0671C45.2264 27.1925 43.9295 27.3979 43.9946 28.2964C43.8716 27.404 42.5603 27.4728 42.5312 28.373C42.5022 27.4728 41.1909 27.404 41.0679 28.2964C41.133 27.3979 39.8361 27.1925 39.6205 28.0671C39.7792 27.1804 38.5109 26.8406 38.205 27.6878C38.4555 26.8226 37.2297 26.3521 36.8369 27.1627C37.1765 26.3284 36.0066 25.7323 35.5312 26.4974C35.9562 25.7032 34.855 24.988 34.3023 25.6993C34.8079 24.9538 33.7875 24.1275 33.1634 24.7771C33.7442 24.0886 32.8157 23.1601 32.1272 23.7409C32.7768 23.1168 31.9505 22.0964 31.205 22.602C31.9163 22.0493 31.2011 20.9481 30.4069 21.373C31.172 20.8977 30.5759 19.7278 29.7416 20.0674C30.5522 19.6746 30.0817 18.4488 29.2165 18.6993C30.0637 18.3934 29.7239 17.1251 28.8372 17.2838C29.7118 17.0682 29.5063 15.7713 28.6079 15.8364C29.5003 15.7134 29.4315 14.4021 28.5312 14.373C29.4315 14.344 29.5003 13.0327 28.6079 12.9096C29.5063 12.9748 29.7118 11.6779 28.8372 11.4623C29.7239 11.621 30.0637 10.3527 29.2165 10.0468C30.0817 10.2973 30.5522 9.0715 29.7416 8.67873C30.5759 9.01834 31.172 7.84839 30.4069 7.37305C31.2011 7.798 31.9163 6.69677 31.205 6.14405C31.9505 6.64969 32.7768 5.62925 32.1272 5.00522C32.8157 5.58601 33.7442 4.65754 33.1634 3.96902C33.7875 4.6186 34.8079 3.79226 34.3023 3.04681C34.855 3.75806 35.9562 3.04292 35.5312 2.24869C36.0066 3.01382 37.1765 2.4177 36.8369 1.58341C37.2297 2.39404 38.4555 1.92348 38.205 1.05826C38.5109 1.90549 39.7792 1.56565 39.6205 0.678981C39.8361 1.55355 41.133 1.34814 41.0679 0.44974C41.1909 1.34206 42.5022 1.27334 42.5312 0.373047Z" fill="#FFA722"/>
<path d="M97.5312 0.373047C97.5603 1.27334 98.8716 1.34206 98.9946 0.44974C98.9295 1.34814 100.226 1.55355 100.442 0.678981C100.283 1.56565 101.552 1.9055 101.857 1.05826C101.607 1.92348 102.833 2.39404 103.226 1.58341C102.886 2.4177 104.056 3.01382 104.531 2.24869C104.106 3.04292 105.208 3.75806 105.76 3.04681C105.255 3.79226 106.275 4.6186 106.899 3.96902C106.318 4.65754 107.247 5.58601 107.935 5.00522C107.286 5.62925 108.112 6.64969 108.857 6.14405C108.146 6.69677 108.861 7.798 109.656 7.37305C108.89 7.84839 109.487 9.01834 110.321 8.67873C109.51 9.0715 109.981 10.2973 110.846 10.0468C109.999 10.3527 110.339 11.621 111.225 11.4623C110.351 11.6779 110.556 12.9748 111.455 12.9096C110.562 13.0327 110.631 14.344 111.531 14.373C110.631 14.4021 110.562 15.7134 111.455 15.8364C110.556 15.7713 110.351 17.0682 111.225 17.2838C110.339 17.1251 109.999 18.3934 110.846 18.6993C109.981 18.4488 109.51 19.6746 110.321 20.0674C109.487 19.7278 108.89 20.8977 109.656 21.373C108.861 20.9481 108.146 22.0493 108.857 22.602C108.112 22.0964 107.286 23.1168 107.935 23.7409C107.247 23.1601 106.318 24.0886 106.899 24.7771C106.275 24.1275 105.255 24.9538 105.76 25.6993C105.208 24.988 104.106 25.7032 104.531 26.4974C104.056 25.7323 102.886 26.3284 103.226 27.1627C102.833 26.3521 101.607 26.8226 101.857 27.6878C101.552 26.8406 100.283 27.1804 100.442 28.0671C100.226 27.1925 98.9295 27.3979 98.9946 28.2964C98.8716 27.404 97.5603 27.4728 97.5312 28.373C97.5022 27.4728 96.1909 27.404 96.0679 28.2964C96.133 27.3979 94.8361 27.1925 94.6205 28.0671C94.7792 27.1804 93.5109 26.8406 93.205 27.6878C93.4555 26.8226 92.2297 26.3521 91.8369 27.1627C92.1765 26.3284 91.0066 25.7323 90.5312 26.4974C90.9562 25.7032 89.855 24.988 89.3023 25.6993C89.8079 24.9538 88.7875 24.1275 88.1634 24.7771C88.7442 24.0886 87.8157 23.1601 87.1272 23.7409C87.7768 23.1168 86.9505 22.0964 86.205 22.602C86.9163 22.0493 86.2011 20.9481 85.4069 21.373C86.172 20.8977 85.5759 19.7278 84.7416 20.0674C85.5522 19.6746 85.0817 18.4488 84.2165 18.6993C85.0637 18.3934 84.7239 17.1251 83.8372 17.2838C84.7118 17.0682 84.5063 15.7713 83.6079 15.8364C84.5003 15.7134 84.4315 14.4021 83.5312 14.373C84.4315 14.344 84.5003 13.0327 83.6079 12.9096C84.5063 12.9748 84.7118 11.6779 83.8372 11.4623C84.7239 11.621 85.0637 10.3527 84.2165 10.0468C85.0817 10.2973 85.5522 9.0715 84.7416 8.67873C85.5759 9.01834 86.172 7.84839 85.4069 7.37305C86.2011 7.798 86.9163 6.69677 86.205 6.14405C86.9505 6.64969 87.7768 5.62925 87.1272 5.00522C87.8157 5.58601 88.7442 4.65754 88.1634 3.96902C88.7875 4.6186 89.8079 3.79226 89.3023 3.04681C89.855 3.75806 90.9562 3.04292 90.5312 2.24869C91.0066 3.01382 92.1765 2.4177 91.8369 1.58341C92.2297 2.39404 93.4555 1.92348 93.205 1.05826C93.5109 1.90549 94.7792 1.56565 94.6205 0.678981C94.8361 1.55355 96.133 1.34814 96.0679 0.44974C96.1909 1.34206 97.5022 1.27334 97.5312 0.373047Z" fill="#FFA722"/>
<mask id="mask0_229_20962" style="mask-type:alpha" maskUnits="userSpaceOnUse" x="111" y="0" width="29" height="29">
<path d="M125.518 0C125.547 0.900929 126.859 0.969698 126.982 0.0767479C126.917 0.975786 128.215 1.18134 128.431 0.306149C128.272 1.19345 129.541 1.53353 129.847 0.685693C129.596 1.55153 130.823 2.02242 131.216 1.21122C130.876 2.0461 132.047 2.64264 132.523 1.87697C132.097 2.67175 133.199 3.3874 133.752 2.67565C133.246 3.42163 134.268 4.24855 134.892 3.59851C134.311 4.28751 135.24 5.21664 135.929 4.63544C135.279 5.25992 136.106 6.28108 136.852 5.77508C136.14 6.32819 136.856 7.43019 137.651 7.00494C136.885 7.48062 137.481 8.65139 138.316 8.31155C137.505 8.70459 137.976 9.9313 138.842 9.68059C137.994 9.98668 138.334 11.2559 139.221 11.0971C138.346 11.3129 138.552 12.6107 139.451 12.5455C138.558 12.6686 138.627 13.9808 139.528 14.0099C138.627 14.039 138.558 15.3512 139.451 15.4743C138.552 15.4091 138.346 16.7069 139.221 16.9227C138.334 16.7639 137.994 18.0331 138.842 18.3392C137.976 18.0885 137.505 19.3152 138.316 19.7082C137.481 19.3684 136.885 20.5391 137.651 21.0148C136.856 20.5896 136.14 21.6916 136.852 22.2447C136.106 21.7387 135.279 22.7598 135.929 23.3843C135.24 22.8031 134.311 23.7322 134.892 24.4213C134.268 23.7712 133.246 24.5981 133.752 25.3441C133.199 24.6324 132.097 25.348 132.523 26.1428C132.047 25.3771 130.876 25.9737 131.216 26.8085C130.823 25.9973 129.596 26.4682 129.847 27.3341C129.541 26.4862 128.272 26.8263 128.431 27.7136C128.215 26.8384 126.917 27.044 126.982 27.943C126.859 27.0501 125.547 27.1188 125.518 28.0198C125.489 27.1188 124.176 27.0501 124.053 27.943C124.118 27.044 122.821 26.8384 122.605 27.7136C122.764 26.8263 121.494 26.4862 121.188 27.3341C121.439 26.4682 120.212 25.9973 119.819 26.8085C120.159 25.9737 118.988 25.3771 118.513 26.1428C118.938 25.348 117.836 24.6324 117.283 25.3441C117.789 24.5981 116.768 23.7712 116.143 24.4213C116.724 23.7322 115.795 22.8031 115.106 23.3843C115.756 22.7598 114.929 21.7387 114.183 22.2447C114.895 21.6916 114.18 20.5896 113.385 21.0148C114.15 20.5391 113.554 19.3684 112.719 19.7082C113.53 19.3152 113.059 18.0885 112.194 18.3392C113.041 18.0331 112.701 16.7639 111.814 16.9227C112.689 16.7069 112.484 15.4091 111.585 15.4743C112.478 15.3512 112.409 14.039 111.508 14.0099C112.409 13.9808 112.478 12.6686 111.585 12.5455C112.484 12.6107 112.689 11.3129 111.814 11.0971C112.701 11.2559 113.041 9.98668 112.194 9.68059C113.059 9.9313 113.53 8.70459 112.719 8.31155C113.554 8.65139 114.15 7.48062 113.385 7.00494C114.18 7.43019 114.895 6.32819 114.183 5.77508C114.929 6.28108 115.756 5.25992 115.106 4.63544C115.795 5.21664 116.724 4.28751 116.143 3.59851C116.768 4.24855 117.789 3.42163 117.283 2.67565C117.836 3.3874 118.938 2.67175 118.513 1.87697C118.988 2.64264 120.159 2.0461 119.819 1.21122C120.212 2.02242 121.439 1.55152 121.188 0.685693C121.494 1.53353 122.764 1.19345 122.605 0.306149C122.821 1.18134 124.118 0.975786 124.053 0.0767479C124.176 0.969698 125.489 0.900929 125.518 0Z" fill="#FFA722"/>
</mask>
<g mask="url(#mask0_229_20962)">
<rect x="114.258" y="0.548828" width="10.9881" height="25.2727" rx="1" fill="#FFA722"/>
</g>
</svg>
