<svg width="29" height="29" viewBox="0 0 29 29" fill="none" xmlns="http://www.w3.org/2000/svg">
<g clip-path="url(#clip0_556_961)">
<path d="M20.6156 6.72891H22.4823M8.48229 1.12891H19.6823C21.6626 1.12891 23.5618 1.91557 24.962 3.31584C26.3623 4.71611 27.149 6.61529 27.149 8.59557V19.7956C27.149 21.7759 26.3623 23.675 24.962 25.0753C23.5618 26.4756 21.6626 27.2622 19.6823 27.2622H8.48229C6.50201 27.2622 4.60283 26.4756 3.20256 25.0753C1.80229 23.675 1.01563 21.7759 1.01562 19.7956V8.59557C1.01563 6.61529 1.80229 4.71611 3.20256 3.31584C4.60283 1.91557 6.50201 1.12891 8.48229 1.12891ZM14.0823 19.7956C12.5971 19.7956 11.1727 19.2056 10.1225 18.1554C9.07229 17.1052 8.48229 15.6808 8.48229 14.1956C8.48229 12.7104 9.07229 11.286 10.1225 10.2358C11.1727 9.18557 12.5971 8.59557 14.0823 8.59557C15.5675 8.59557 16.9919 9.18557 18.0421 10.2358C19.0923 11.286 19.6823 12.7104 19.6823 14.1956C19.6823 15.6808 19.0923 17.1052 18.0421 18.1554C16.9919 19.2056 15.5675 19.7956 14.0823 19.7956Z" stroke="#4D4F5C" stroke-width="1.86667"/>
</g>
<defs>
<clipPath id="clip0_556_961">
<rect width="28" height="28" fill="white" transform="translate(0.0859375 0.195312)"/>
</clipPath>
</defs>
</svg>
