<svg width="26" height="25" viewBox="0 0 26 25" fill="none" xmlns="http://www.w3.org/2000/svg">
<path d="M19.2242 8.23175C19.5795 7.80886 19.5246 7.17808 19.1017 6.82285C18.6788 6.46763 18.048 6.52248 17.6928 6.94536L19.2242 8.23175ZM10.5591 16.9926L9.81584 17.6616C10.0095 17.8767 10.2868 17.9974 10.5762 17.9925C10.8656 17.9875 11.1387 17.8574 11.3248 17.6358L10.5591 16.9926ZM7.91697 12.562C7.54751 12.1515 6.91522 12.1182 6.50471 12.4877C6.0942 12.8571 6.06092 13.4894 6.43038 13.8999L7.91697 12.562ZM25.1009 12.2907C25.1009 5.50825 19.5986 0.00585938 12.8161 0.00585938V2.00586C18.494 2.00586 23.1009 6.61282 23.1009 12.2907H25.1009ZM12.8161 0.00585938C6.03364 0.00585938 0.53125 5.50825 0.53125 12.2907H2.53125C2.53125 6.61282 7.13821 2.00586 12.8161 2.00586V0.00585938ZM0.53125 12.2907C0.53125 19.0732 6.03364 24.5756 12.8161 24.5756V22.5756C7.13821 22.5756 2.53125 17.9686 2.53125 12.2907H0.53125ZM12.8161 24.5756C19.5986 24.5756 25.1009 19.0732 25.1009 12.2907H23.1009C23.1009 17.9686 18.494 22.5756 12.8161 22.5756V24.5756ZM17.6928 6.94536L9.79342 16.3494L11.3248 17.6358L19.2242 8.23175L17.6928 6.94536ZM11.3024 16.3236L7.91697 12.562L6.43038 13.8999L9.81584 17.6616L11.3024 16.3236Z" fill="#31C65B"/>
</svg>
