<svg width="26" height="25" viewBox="0 0 26 25" fill="none" xmlns="http://www.w3.org/2000/svg">
<path d="M19.2242 8.65558C19.5795 8.23269 19.5246 7.6019 19.1017 7.24668C18.6788 6.89145 18.048 6.94631 17.6928 7.36919L19.2242 8.65558ZM10.5591 17.4164L9.81584 18.0854C10.0095 18.3005 10.2868 18.4212 10.5762 18.4163C10.8656 18.4113 11.1387 18.2812 11.3248 18.0596L10.5591 17.4164ZM7.91697 12.9858C7.54751 12.5753 6.91522 12.5421 6.50471 12.9115C6.0942 13.281 6.06092 13.9133 6.43038 14.3238L7.91697 12.9858ZM25.1009 12.7145C25.1009 5.93207 19.5986 0.429688 12.8161 0.429688V2.42969C18.494 2.42969 23.1009 7.03664 23.1009 12.7145H25.1009ZM12.8161 0.429688C6.03364 0.429688 0.53125 5.93207 0.53125 12.7145H2.53125C2.53125 7.03664 7.13821 2.42969 12.8161 2.42969V0.429688ZM0.53125 12.7145C0.53125 19.497 6.03364 24.9994 12.8161 24.9994V22.9994C7.13821 22.9994 2.53125 18.3924 2.53125 12.7145H0.53125ZM12.8161 24.9994C19.5986 24.9994 25.1009 19.497 25.1009 12.7145H23.1009C23.1009 18.3924 18.494 22.9994 12.8161 22.9994V24.9994ZM17.6928 7.36919L9.79342 16.7732L11.3248 18.0596L19.2242 8.65558L17.6928 7.36919ZM11.3024 16.7475L7.91697 12.9858L6.43038 14.3238L9.81584 18.0854L11.3024 16.7475Z" fill="#31C65B"/>
</svg>
