<svg width="26" height="25" viewBox="0 0 26 25" fill="none" xmlns="http://www.w3.org/2000/svg">
<path d="M19.2242 8.22589C19.5795 7.803 19.5246 7.17222 19.1017 6.81699C18.6788 6.46177 18.048 6.51662 17.6928 6.93951L19.2242 8.22589ZM10.5591 16.9867L9.81584 17.6557C10.0095 17.8708 10.2868 17.9915 10.5762 17.9866C10.8656 17.9816 11.1387 17.8516 11.3248 17.6299L10.5591 16.9867ZM7.91697 12.5562C7.54751 12.1456 6.91522 12.1124 6.50471 12.4818C6.0942 12.8513 6.06092 13.4836 6.43038 13.8941L7.91697 12.5562ZM25.1009 12.2848C25.1009 5.50239 19.5986 0 12.8161 0V2C18.494 2 23.1009 6.60696 23.1009 12.2848H25.1009ZM12.8161 0C6.03364 0 0.53125 5.50239 0.53125 12.2848H2.53125C2.53125 6.60696 7.13821 2 12.8161 2V0ZM0.53125 12.2848C0.53125 19.0673 6.03364 24.5697 12.8161 24.5697V22.5697C7.13821 22.5697 2.53125 17.9627 2.53125 12.2848H0.53125ZM12.8161 24.5697C19.5986 24.5697 25.1009 19.0673 25.1009 12.2848H23.1009C23.1009 17.9627 18.494 22.5697 12.8161 22.5697V24.5697ZM17.6928 6.93951L9.79342 16.3435L11.3248 17.6299L19.2242 8.22589L17.6928 6.93951ZM11.3024 16.3178L7.91697 12.5562L6.43038 13.8941L9.81584 17.6557L11.3024 16.3178Z" fill="#31C65B"/>
</svg>
